<svg width="48" height="45" viewBox="0 0 48 45" fill="none" xmlns="http://www.w3.org/2000/svg">
<g clip-path="url(#clip0_993:496)">
<path d="M23.8406 20.8025C28.1448 20.8025 31.4925 17.3071 31.4925 13.0173C31.4925 8.72759 27.9854 5.39111 23.6812 5.39111C19.377 5.39111 16.0293 8.88647 16.0293 13.0173C16.0293 17.3071 19.5364 20.8025 23.8406 20.8025ZM23.6812 8.56871C23.8406 8.56871 23.8406 8.56871 23.6812 8.56871C26.2318 8.56871 28.3042 10.6342 28.3042 13.1762C28.3042 15.7183 26.2318 17.6249 23.6812 17.6249C21.1306 17.6249 19.2176 15.5594 19.2176 13.1762C19.2176 10.6342 21.29 8.56871 23.6812 8.56871Z" fill="#0D5C63"/>
<path d="M47.4335 19.8487C44.4046 17.1477 40.4193 15.7178 36.2745 15.8767H34.9992C34.6804 17.1477 34.2021 18.2599 33.5645 19.2132C34.5209 19.0543 35.318 19.0543 36.2745 19.0543C39.3034 18.8954 42.3323 19.8487 44.7235 21.5964V33.0357H47.9118V20.3253L47.4335 19.8487Z" fill="#0D5C63"/>
<path d="M32.6088 5.70826C33.4058 3.8017 35.6376 2.84842 37.71 3.64282C39.623 4.43722 40.5795 6.66154 39.7824 8.72697C39.1448 10.1569 37.71 11.1102 36.2753 11.1102C35.9565 11.1102 35.4782 11.1102 35.1594 10.9513C35.3188 11.7457 35.3188 12.5401 35.3188 13.1756V14.1289C35.6376 14.1289 35.9565 14.2878 36.2753 14.2878C40.2607 14.2878 43.449 11.1102 43.449 7.29706C43.449 3.32506 40.2607 0.147461 36.4347 0.147461C33.8841 0.147461 31.6523 1.4185 30.377 3.64282C31.174 4.11946 31.9711 4.75498 32.6088 5.70826Z" fill="#0D5C63"/>
<path d="M14.4352 19.3724C13.7975 18.4191 13.3193 17.3069 13.0005 16.0359H11.7252C7.58037 15.877 3.59501 17.3069 0.566134 19.849L0.0878906 20.3257V33.0361H3.27618V21.5967C5.82681 19.849 8.69628 18.8957 11.7252 19.0546C12.6816 19.0546 13.6381 19.2135 14.4352 19.3724Z" fill="#0D5C63"/>
<path d="M11.7246 14.1295C12.0435 14.1295 12.3623 14.1295 12.6811 13.9706V13.0174C12.6811 12.223 12.6811 11.4286 12.8405 10.793C12.5217 10.9519 12.0435 10.9519 11.7246 10.9519C9.65225 10.9519 7.89869 9.20424 7.89869 7.1388C7.89869 5.07336 9.65225 3.32568 11.7246 3.32568C13.3188 3.32568 14.7535 4.27896 15.3912 5.70888C16.0288 4.91448 16.9853 4.12008 17.7824 3.48456C15.71 0.148085 11.4058 -0.964074 8.0581 1.10136C4.7104 3.1668 3.59449 7.45656 5.66688 10.793C6.9422 12.8585 9.174 14.1295 11.7246 14.1295Z" fill="#0D5C63"/>
<path d="M36.9128 29.3817L36.594 28.9051C33.4057 25.4097 28.9421 23.3443 24.1596 23.5032C19.3772 23.3443 14.7542 25.4097 11.5659 28.9051L11.2471 29.3817V41.4566C11.2471 42.8865 12.363 44.1576 13.9571 44.1576H34.3622C35.7969 44.1576 37.0722 42.8865 37.0722 41.4566V29.3817H36.9128ZM33.7245 40.98H14.4354V30.4939C16.986 27.9518 20.4931 26.6808 24.1596 26.6808C27.6668 26.5219 31.1739 27.9518 33.7245 30.4939V40.98Z" fill="#0D5C63"/>
</g>
<defs>
<clipPath id="clip0_993:496">
<rect width="48" height="44.2105" fill="white"/>
</clipPath>
</defs>
</svg>
