<svg width="49" height="48" viewBox="0 0 49 48" fill="none" xmlns="http://www.w3.org/2000/svg">
<g clip-path="url(#clip0_965:127)">
<path d="M44.1506 22.2819C43.5751 22.2861 43.005 22.3959 42.4678 22.6061L36.7275 17.8214C36.8687 17.2998 36.9692 16.7587 36.9692 16.1883C36.9692 12.81 34.3026 10.0947 30.9848 10.0947C27.667 10.0947 25.0003 12.81 25.0003 16.1883C25.0003 17.1536 25.2397 18.053 25.6275 18.8622L18.664 27.2421C18.3852 27.189 18.1025 27.1605 17.819 27.1568C17.3905 27.1568 16.9859 27.23 16.5934 27.3372L10.4581 21.09C10.5658 20.6927 10.6376 20.2808 10.6376 19.8445C10.6376 17.1438 8.50238 14.9696 5.85006 14.9696C3.19775 14.9696 1.0625 17.1438 1.0625 19.8445C1.0625 22.5452 3.19775 24.7194 5.85006 24.7194C6.27855 24.7194 6.6831 24.6463 7.07568 24.539L13.2109 30.7862C13.0959 31.1911 13.0355 31.6102 13.0314 32.0317C13.0314 34.7324 15.1667 36.9066 17.819 36.9066C20.4713 36.9066 22.6065 34.7324 22.6065 32.0317C22.6065 31.454 22.4916 30.9105 22.3121 30.3962L29.2852 22.0065C29.8286 22.1674 30.3911 22.2819 30.9848 22.2819C31.9295 22.2766 32.8593 22.0418 33.6969 21.597L39.4396 26.3817C39.3946 26.6377 39.369 26.8968 39.363 27.1568C39.363 29.8575 41.4983 32.0317 44.1506 32.0317C46.8029 32.0317 48.9381 29.8575 48.9381 27.1568C48.9381 24.4561 46.8029 22.2819 44.1506 22.2819Z" fill="#0D5C63"/>
</g>
<defs>
<clipPath id="clip0_965:127">
<rect width="48" height="48" fill="white" transform="translate(0.5)"/>
</clipPath>
</defs>
</svg>
