<svg width="32" height="32" viewBox="0 0 32 32" fill="none" xmlns="http://www.w3.org/2000/svg">
<g clip-path="url(#clip0_964:17543)">
<path d="M29.8154 10.3646L27.8167 13.3708C28.7806 15.2933 29.2525 17.4249 29.1901 19.5746C29.1277 21.7243 28.5329 23.825 27.4592 25.6883H4.93666C3.54106 23.2672 2.96277 20.4609 3.28751 17.6853C3.61226 14.9097 4.82277 12.3126 6.73956 10.2791C8.65636 8.2456 11.1774 6.88388 13.929 6.39581C16.6806 5.90775 19.5162 6.31934 22.0154 7.56956L25.0217 5.57081C21.9609 3.60816 18.3304 2.72869 14.7109 3.07308C11.0913 3.41747 7.69176 4.96581 5.05609 7.47045C2.42042 9.97509 0.700875 13.2913 0.172515 16.8886C-0.355844 20.486 0.337506 24.1566 2.14166 27.3133C2.42524 27.8045 2.83243 28.2129 3.32276 28.498C3.81309 28.7831 4.36949 28.9349 4.93666 28.9383H27.4429C28.0156 28.9406 28.5787 28.7915 29.0752 28.5061C29.5718 28.2208 29.9841 27.8093 30.2704 27.3133C31.7676 24.7197 32.519 21.7627 32.4416 18.769C32.3642 15.7752 31.461 12.8611 29.8317 10.3483L29.8154 10.3646ZM13.9067 21.4796C14.2085 21.7817 14.5669 22.0214 14.9615 22.185C15.356 22.3486 15.7789 22.4327 16.206 22.4327C16.6331 22.4327 17.056 22.3486 17.4506 22.185C17.8451 22.0214 18.2036 21.7817 18.5054 21.4796L27.7029 7.68331L13.9067 16.8808C13.6045 17.1826 13.3648 17.5411 13.2012 17.9356C13.0377 18.3302 12.9535 18.7531 12.9535 19.1802C12.9535 19.6073 13.0377 20.0302 13.2012 20.4247C13.3648 20.8193 13.6045 21.1777 13.9067 21.4796Z" fill="#FF7B47"/>
</g>
<defs>
<clipPath id="clip0_964:17543">
<rect width="32" height="32" fill="white"/>
</clipPath>
</defs>
</svg>
